<svg width="100%" height="100%" viewBox="0 0 200 100" xmlns="http://www.w3.org/2000/svg">
<path d="M0.75 50.3516V49.5496C0.75 49.0717 1.02243 48.6357 1.4519 48.4261L98.9138 0.876573C99.0845 0.793287 99.2719 0.75 99.4619 0.75H100.538C100.728 0.75 100.916 0.793287 101.086 0.876571L198.548 48.4261C198.978 48.6357 199.25 49.0717 199.25 49.5496V50.3516C199.25 50.829 198.978 51.2648 198.549 51.4745L101.086 99.123C100.915 99.2066 100.728 99.25 100.537 99.25H99.4627C99.2724 99.25 99.0847 99.2066 98.9137 99.123L1.45099 51.4745C1.02202 51.2648 0.75 50.829 0.75 50.3516Z" fill="inherit" stroke="inherit" stroke-width="1.5"/>
</svg>
