<svg width="200" height="200" viewBox="0 0 200 200" fill="none" xmlns="http://www.w3.org/2000/svg">
<rect width="200" height="200" rx="20" fill="white"/>
<path d="M61.8254 72.1429C61.8254 66.4447 66.4447 61.8254 72.1429 61.8254H154.683C160.381 61.8254 165 66.4447 165 72.1429V154.683C165 160.381 160.381 165 154.683 165H72.1429C66.4447 165 61.8254 160.381 61.8254 154.683V72.1429Z" fill="#F24822"/>
<path d="M35 45.3175C35 39.6193 39.6193 35 45.3175 35H127.857C133.555 35 138.175 39.6193 138.175 45.3175V127.857C138.175 133.555 133.555 138.175 127.857 138.175H45.3175C39.6193 138.175 35 133.555 35 127.857V45.3175Z" fill="#0D99FF"/>
</svg>
